<?xml version="1.0" encoding="UTF-8"?>
<!DOCTYPE svg PUBLIC "-//W3C//DTD SVG 1.1//EN" "http://www.w3.org/Graphics/SVG/1.1/DTD/svg11.dtd">
<!-- Creator: CorelDRAW -->
<svg xmlns="http://www.w3.org/2000/svg" xml:space="preserve" width="1.70666in" height="1.70666in" version="1.1" style="shape-rendering:geometricPrecision; text-rendering:geometricPrecision; image-rendering:optimizeQuality; fill-rule:evenodd; clip-rule:evenodd"
viewBox="0 0 1706.66 1706.66"
 xmlns:xlink="http://www.w3.org/1999/xlink"
 xmlns:xodm="http://www.corel.com/coreldraw/odm/2003">
 <defs>
  <style type="text/css">
   <![CDATA[
    .fil2 {fill:none}
    .fil1 {fill:#FEFEFE}
    .fil0 {fill:#5851EA}
   ]]>
  </style>
    <mask id="id0">
  <linearGradient id="id1" gradientUnits="userSpaceOnUse" x1="437.51" y1="681.29" x2="1528.2" y2="1567.7">
   <stop offset="0" style="stop-opacity:1; stop-color:white"/>
   <stop offset="0.490196" style="stop-opacity:1; stop-color:white"/>
   <stop offset="1" style="stop-opacity:1; stop-color:white"/>
  </linearGradient>
     <rect style="fill:url(#id1)" x="197.29" y="240.44" width="1277.63" height="1203.94"/>
    </mask>
 </defs>
 <g id="Layer_x0020_1">
  <metadata id="CorelCorpID_0Corel-Layer"/>
  <g id="_2554045010192">
   <path class="fil0" style="mask:url(#id0)" d="M478.17 240.44l715.88 0c154.48,0 280.87,126.39 280.87,280.87l0 642.19c0,154.48 -126.39,280.87 -280.87,280.87l-715.88 0c-154.48,0 -280.87,-126.39 -280.87,-280.87l0 -642.19c0,-154.48 126.39,-280.87 280.87,-280.87z"/>
   <g>
    <g>
     <path class="fil1" d="M897.02 812.51c-100.8,-30.74 -213.92,26.31 -260.14,117.87 -44.49,88.15 10.4,160.92 95.74,191.2 160.42,56.92 293.07,-157.31 322.58,-291.44 41.88,-190.39 -49.85,-316.21 -245.81,-322.61 -144.24,-4.71 -293.77,78.52 -357.38,210.63 -25.84,53.67 3.08,1.21 -31.24,60.28l8.11 -36.48c46.5,-179.98 237.48,-290.15 415.15,-276.98 519.1,38.5 221.09,845.25 -135.37,728.78 -181.07,-59.17 -221.06,-239.83 -93.29,-375.98 82.68,-88.09 194.41,-124.26 311.1,-91.34 23.54,8.21 36.03,34.13 27.9,57.9 -8.13,23.77 -33.8,36.38 -57.35,28.17z"/>
    </g>
    <path class="fil2" d="M911.74 769.47c-216.51,-75.49 -488.72,240.42 -218.87,376.52 296.43,149.5 590.62,-512.52 245.49,-637.08 -168.74,-60.9 -358.03,1.23 -461.95,148.02 -32.2,45.49 -33.54,69.6 -55.65,121.5"/>
    <ellipse class="fil1" cx="1172.16" cy="1028.26" rx="79.29" ry="76.69"/>
   </g>
  </g>
 </g>
</svg>
